<?xml version="1.0" encoding="UTF-8"?>
<svg width="16px" height="16px" viewBox="0 0 16 16" version="1.1" xmlns="http://www.w3.org/2000/svg" xmlns:xlink="http://www.w3.org/1999/xlink">
    <!-- Generator: Sketch 64 (93537) - https://sketch.com -->
    <title>Icons 16 / VS Code /AtlasDark</title>
    <desc>Created with Sketch.</desc>
    <g id="Icons-16-/-VS-Code-/AtlasDark" stroke="none" stroke-width="1" fill="none" fill-rule="evenodd">
        <g id="Atlas/_Icon/Small/Gray" transform="translate(2.000000, 2.000000)" fill="#D4D4D4">
            <path d="M11.6834885,7.10185588 L11.9104478,7.10447761 C11.4029851,9.76119403 9.1641791,11.8208955 6.41791045,12 L6.41791045,12 L6.41791045,10.6268657 C6.74626866,9.85074627 7.34328358,8.8358209 8.47761194,8.05970149 C9.6119403,7.28358209 10.8656716,7.07462687 11.9104478,7.10447761 Z M0.0895522388,7.10447761 C1.13432836,7.07462687 2.3880597,7.28358209 3.52238806,8.05970149 C4.65671642,8.8358209 5.25373134,9.88059701 5.58208955,10.6268657 L5.58208955,10.6268657 L5.58208955,12 C2.8358209,11.7910448 0.597014925,9.76119403 0.0895522388,7.10447761 Z M11.1343284,2.86567164 C11.6716418,3.79104478 12,4.86567164 12,6 L12,6 L12,6.26865672 C10.8059701,6.23880597 9.37313433,6.44776119 8,7.37313433 C7.31343284,7.82089552 6.80597015,8.3880597 6.41791045,8.92537313 L6.41791045,8.92537313 L6.41791045,6.35820896 C6.74626866,5.58208955 7.34328358,4.56716418 8.47761194,3.79104478 C9.34328358,3.19402985 10.2985075,2.95522388 11.1343284,2.86567164 Z M0.865671642,2.86567164 C1.73134328,2.92537313 2.65671642,3.19402985 3.52238806,3.79104478 C4.65671642,4.56716418 5.25373134,5.6119403 5.58208955,6.35820896 L5.58208955,6.35820896 L5.58208955,8.92537313 C5.19402985,8.3880597 4.68656716,7.85074627 4,7.37313433 C2.65671642,6.44776119 1.19402985,6.20895522 4.4408921e-16,6.26865672 L4.4408921e-16,6.26865672 L4.4408921e-16,6 C4.4408921e-16,4.8358209 0.298507463,3.79104478 0.865671642,2.86567164 Z M5.58208955,-2.93098879e-14 L5.58208955,4.65671642 C5.19402985,4.11940299 4.68656716,3.58208955 4,3.10447761 C3.1641791,2.53731343 2.26865672,2.23880597 1.46268657,2.08955224 C2.47761194,0.895522388 3.94029851,0.119402985 5.58208955,-2.93098879e-14 L5.58208955,-2.93098879e-14 Z M6.44776119,-2.93098879e-14 C8.08955224,0.119402985 9.55223881,0.895522388 10.5671642,2.08955224 C9.73134328,2.23880597 8.8358209,2.53731343 8,3.10447761 C7.31343284,3.58208955 6.80597015,4.11940299 6.41791045,4.65671642 L6.447,4.616 Z" id="Logo-Color"></path>
        </g>
    </g>
</svg>
