<?xml version="1.0" encoding="UTF-8"?>
<svg width="16px" height="16px" viewBox="-2 -2 20 20" version="1.1" xmlns="http://www.w3.org/2000/svg" xmlns:xlink="http://www.w3.org/1999/xlink">
    <!-- Generator: Sketch 63.1 (92452) - https://sketch.com -->
    <title>Glyphs / Arrow / Down</title>
    <desc>Created with Sketch.</desc>
    <g id="Glyphs-/-Arrow-/-Down" stroke="none" stroke-width="1" fill="none" fill-rule="evenodd">
        <path
            d="M6.95246066,1.93771468 L7.64613325,1.22601328 C7.93985046,0.924662239 8.41479746,0.924662239 8.70539002,1.22601328 L14.7797121,7.45500343 C15.0734293,7.75635447 15.0734293,8.24364553 14.7797121,8.5417907 L8.70539002,14.7739867 C8.4116728,15.0753378 7.93672582,15.0753378 7.64613325,14.7739867 L6.95246066,14.0622853 C6.65561879,13.7577284 6.66186809,13.2608198 6.96495927,12.9626746 L10.730164,9.28234486 L1.7499163,9.28234486 C1.33433768,9.28234486 1,8.93931761 1,8.51293795 L1,7.48706205 C1,7.06068239 1.33433768,6.71765514 1.7499163,6.71765514 L10.730164,6.71765514 L6.96495927,3.0373254 C6.65874345,2.73918021 6.65249414,2.24227158 6.95246066,1.93771468 Z"
            id="Path"
            fill="#061621"
            fill-rule="nonzero"
            transform="translate(8.000000, 8.000000) scale(-1, 1) rotate(90.000000) translate(-8.000000, -8.000000) "
        ></path>
    </g>
</svg>
