<?xml version="1.0" encoding="UTF-8"?>
<svg width="18px" height="18px" viewBox="0 0 18 18" version="1.1" xmlns="http://www.w3.org/2000/svg" xmlns:xlink="http://www.w3.org/1999/xlink">
    <!-- Generator: Sketch 63.1 (92452) - https://sketch.com -->
    <title>Icon / Int 00</title>
    <g id="Icon-/-Int-00" stroke="none" stroke-width="1" fill="none" fill-rule="evenodd">
        <path d="M7.5,4 C7.72151357,4 7.9010858,4.17957223 7.9010858,4.4010858 C7.9010858,4.43034996 7.89788306,4.45952623 7.89153477,4.48809353 L7.55475725,6 L10.5547572,6 L10.9129923,4.39153477 C10.9638298,4.16276599 11.1667365,4 11.4010858,4 L11.5,4 C11.7215136,4 11.9010858,4.17957223 11.9010858,4.4010858 C11.9010858,4.43034996 11.8978831,4.45952623 11.8915348,4.48809353 L11.5547572,6 L12.987433,6 C13.2137647,6 13.3972428,6.18347808 13.3972428,6.40980976 C13.3972428,6.44015244 13.3938729,6.47040126 13.3871951,6.5 L13.3623692,6.61003915 C13.3109269,6.83805366 13.1083735,7 12.8746281,7 L11.3327572,7 L10.6657572,10 L12.287433,10 C12.5137647,10 12.6972428,10.1834781 12.6972428,10.4098098 C12.6972428,10.4401524 12.6938729,10.4704013 12.6871951,10.5 L12.6623692,10.6100392 C12.6109269,10.8380537 12.4083735,11 12.1746281,11 L10.4437572,11 L10.0870077,12.6084652 C10.0361702,12.837234 9.83326352,13 9.5989142,13 L9.5,13 C9.27848643,13 9.0989142,12.8204278 9.0989142,12.5989142 C9.0989142,12.56965 9.10211694,12.5404738 9.10846523,12.5119065 L9.44375725,11 L6.44375725,11 L6.08700773,12.6084652 C6.03617022,12.837234 5.83326352,13 5.5989142,13 L5.5,13 C5.27848643,13 5.0989142,12.8204278 5.0989142,12.5989142 C5.0989142,12.56965 5.10211694,12.5404738 5.10846523,12.5119065 L5.44375725,11 L4.06256701,11 C3.83623533,11 3.65275725,10.8165219 3.65275725,10.5901902 C3.65275725,10.5598476 3.65612711,10.5295987 3.66280488,10.5 L3.68763078,10.3899608 C3.73907308,10.1619463 3.94162646,10 4.17537189,10 L5.66575725,10 L6.33275725,7 L4.76256701,7 C4.53623533,7 4.35275725,6.81652192 4.35275725,6.59019024 C4.35275725,6.55984756 4.35612711,6.52959874 4.36280488,6.5 L4.38763078,6.38996085 C4.43907308,6.16194634 4.64162646,6 4.87537189,6 L6.55475725,6 L6.91299227,4.39153477 C6.96382978,4.16276599 7.16673648,4 7.4010858,4 L7.5,4 Z M9.66575725,10 L10.3327572,7 L7.33275725,7 L6.66575725,10 L9.66575725,10 Z" id="Combined-Shape" fill="#061621" fill-rule="nonzero"></path>
    </g>
</svg>
