<svg fill="none" xmlns="http://www.w3.org/2000/svg" viewBox="4 1 14 14"><path d="M9 2.98361H8.91083C8.71113 2.98361 8.5238 3.02427 8.34802 3.10513C8.17461 3.18275 8.02193 3.28942 7.89086 3.42437C7.76421 3.55475 7.66135 3.71034 7.58238 3.89205C7.50833 4.07152 7.47134 4.26019 7.47134 4.45902C7.47134 4.68725 7.4753 4.9134 7.48321 5.13749C7.49125 5.36105 7.49127 5.58262 7.48324 5.80219C7.47914 6.01973 7.46082 6.2333 7.42826 6.44285C7.39513 6.65175 7.33913 6.85263 7.26039 7.04464C7.18091 7.23843 7.07258 7.42254 6.93616 7.59702C6.82345 7.74119 6.68538 7.87538 6.52283 8C6.68538 8.12462 6.82345 8.25881 6.93616 8.40298C7.07258 8.57746 7.18091 8.76157 7.26039 8.95536C7.33921 9.14757 7.39513 9.35024 7.42823 9.56312C7.46084 9.76883 7.47914 9.98246 7.48324 10.2039C7.49127 10.4195 7.49125 10.6411 7.48321 10.8686C7.4753 11.0885 7.47134 11.3127 7.47134 11.541C7.47134 11.744 7.50838 11.9346 7.58223 12.1137C7.66104 12.2911 7.76386 12.4469 7.89086 12.5818C8.02194 12.7126 8.17396 12.8191 8.34763 12.9008C8.52346 12.9777 8.71095 13.0164 8.91083 13.0164H9V14H8.91083C8.59743 14 8.29407 13.9384 8.00128 13.8153C7.70818 13.692 7.44942 13.5153 7.22578 13.285C7.00311 13.0558 6.83793 12.805 6.73283 12.5323L6.73232 12.531C6.63387 12.265 6.56819 11.9903 6.53535 11.7072L6.53516 11.7055C6.50677 11.4215 6.4987 11.1316 6.51084 10.8357C6.52272 10.5462 6.52866 10.2567 6.52866 9.96721C6.52866 9.76883 6.48986 9.58047 6.41201 9.40108L6.41129 9.39942C6.33659 9.21871 6.23428 9.0637 6.10412 8.93352L6.10221 8.93161C5.97577 8.79762 5.82457 8.69156 5.64742 8.61396L5.64601 8.61334C5.47001 8.53238 5.28465 8.4918 5.08917 8.4918H5V7.5082H5.08917C5.28497 7.5082 5.4706 7.46954 5.64672 7.3925C5.82466 7.31055 5.97644 7.20405 6.10317 7.07358C6.23423 6.93866 6.33687 6.78296 6.4116 6.60601L6.412 6.60507C6.48974 6.42594 6.52866 6.23556 6.52866 6.03279C6.52866 5.74329 6.52272 5.45379 6.51084 5.16428C6.4987 4.86844 6.50678 4.5805 6.53519 4.30053L6.53533 4.29917C6.56814 4.01201 6.63382 3.7352 6.73233 3.46898L6.73282 3.46766C6.83792 3.19498 7.00311 2.94422 7.22578 2.71498C7.44942 2.48474 7.70818 2.30798 8.00128 2.18473C8.29407 2.06161 8.59743 2 8.91083 2H9V2.98361Z" fill="#CCCCCC" style="--darkreader-inline-fill: #35393b;" data-darkreader-inline-fill=""></path><path d="M14.9118 8.61996C14.9578 8.54605 15.0085 8.47372 15.0638 8.40298C15.1765 8.25881 15.3146 8.12462 15.4772 8C15.3146 7.87538 15.1765 7.74119 15.0638 7.59702C14.9274 7.42254 14.8191 7.23843 14.7396 7.04464C14.6608 6.85243 14.6049 6.64976 14.5718 6.43688C14.5392 6.23117 14.5209 6.01754 14.5168 5.79606C14.5087 5.58049 14.5088 5.35894 14.5168 5.13142C14.5247 4.91145 14.5287 4.68727 14.5287 4.45902C14.5287 4.25596 14.4916 4.0654 14.4178 3.88628C14.339 3.70889 14.2361 3.55305 14.1091 3.41823C13.9781 3.28737 13.826 3.18092 13.6524 3.09917C13.4765 3.0223 13.2891 2.98361 13.0892 2.98361H13V2H13.0892C13.4026 2 13.7059 2.06161 13.9987 2.18473C14.2918 2.30798 14.5506 2.48474 14.7742 2.71498C14.9969 2.94422 15.1621 3.19499 15.2672 3.46766L15.2677 3.46897C15.3661 3.73502 15.4318 4.00972 15.4646 4.29285L15.4648 4.29454C15.4932 4.57848 15.5013 4.86842 15.4892 5.16428C15.4773 5.45379 15.4713 5.74329 15.4713 6.03279C15.4713 6.23117 15.5101 6.41953 15.588 6.59892L15.5887 6.60058C15.6634 6.78129 15.7657 6.9363 15.8959 7.06648L15.8978 7.06839C16.0242 7.20238 16.1754 7.30844 16.3526 7.38604L16.354 7.38666C16.53 7.46762 16.7153 7.5082 16.9108 7.5082H17V8.4918H16.9108C16.715 8.4918 16.5294 8.53046 16.3533 8.6075C16.1753 8.68945 16.0236 8.79595 15.8968 8.92642C15.8704 8.9536 15.8452 8.98162 15.8211 9.01049C15.5414 8.83976 15.2359 8.70717 14.9118 8.61996Z" fill="#CCCCCC" style="--darkreader-inline-fill: #35393b;" data-darkreader-inline-fill=""></path><path d="M16.5296 11.4765L13.2412 13.6687C13.1699 13.7162 13.0736 13.697 13.0261 13.6257C13.0091 13.6002 13 13.5702 13 13.5396V9.15513C13 9.06945 13.0695 9 13.1551 9C13.1858 9 13.2157 9.00907 13.2412 9.02605L16.5296 11.2183C16.6008 11.2658 16.6201 11.3622 16.5726 11.4334C16.5612 11.4505 16.5466 11.4651 16.5296 11.4765Z" fill="#CCCCCC" style="--darkreader-inline-fill: #35393b;" data-darkreader-inline-fill=""></path></svg>
