<?xml version="1.0" encoding="UTF-8"?>
<svg width="18px" height="18px" viewBox="0 0 18 18" version="1.1" xmlns="http://www.w3.org/2000/svg" xmlns:xlink="http://www.w3.org/1999/xlink">
    <!-- Generator: Sketch 63.1 (92452) - https://sketch.com -->
    <title>Icon / Collection Open 00</title>
    <g id="Icon-/-Collection-Open-00" stroke="none" stroke-width="1" fill="none" fill-rule="evenodd">
        <path
            d="M16.3740625,9 C16.8564323,9 17.1569792,9.52325521 16.9139062,9.93992188 L15.0278646,13.173125 C14.7291947,13.6851569 14.1810286,14 13.5882552,14 L3.17252604,14 C2.69015625,14 2.38960937,13.4767448 2.63265625,13.0600781 L4.51869792,9.826875 C4.81738417,9.31484683 5.36555485,9 5.95833333,9 L16.3740625,9 Z M7.41666667,4 L9.08333333,5.66666667 L13.25,5.66666667 C13.9403646,5.66666667 14.5,6.22630208 14.5,6.91666667 L14.5,6.91666667 L14.5,8.16666667 L5.95833333,8.16666667 C5.07263021,8.16666667 4.24515625,8.64192708 3.79888021,9.40697917 L3.79888021,9.40697917 L2,12.4907813 L2,5.25 C2,4.55963542 2.55963542,4 3.25,4 L3.25,4 L7.41666667,4 Z"
            id="Combined-Shape"
            fill="#061621"
            fill-rule="nonzero"
        ></path>
    </g>
</svg>
