<svg width="16" height="16" viewBox="0 0 16 16" fill="none" xmlns="http://www.w3.org/2000/svg">
<path d="M7.02336 1.5176C7.53556 1.54248 7.97993 1.88141 8.14209 2.37086L9.38008 6.10758L10.9391 4.01614C11.1552 3.72625 11.4857 3.54498 11.8449 3.51929C12.2042 3.4936 12.5568 3.62603 12.8115 3.88226L14.7089 5.79127C15.097 6.1818 15.097 6.81496 14.7089 7.20548L14.3325 7.55904C13.9444 7.94956 13.3151 7.94956 12.9269 7.55904L12.0674 6.66915L9.94519 9.51614C9.66793 9.88809 9.2084 10.0745 8.75227 10C8.29614 9.92553 7.91877 9.6025 7.77265 9.16143L6.79779 6.21895L6.11095 7.77382C5.91154 8.22523 5.46662 8.51615 4.97564 8.51615H1.99391C1.44499 8.51615 1 8.06843 1 7.51615V7.01615C1 6.46386 1.44499 6.01615 1.99391 6.01615H4.16825L5.82815 2.25847C6.03641 1.78701 6.51117 1.49272 7.02336 1.5176Z" fill="#21313C"/>
<path d="M14 12C14.5523 12 15 12.4477 15 13V13.5C15 14.0523 14.5523 14.5 14 14.5H2C1.44772 14.5 1 14.0523 1 13.5V13C1 12.4477 1.44772 12 2 12H14Z" fill="#21313C"/>
</svg>
