<?xml version="1.0" encoding="UTF-8"?>
<svg width="18px" height="18px" viewBox="0 0 18 18" version="1.1" xmlns="http://www.w3.org/2000/svg" xmlns:xlink="http://www.w3.org/1999/xlink">
    <!-- Generator: Sketch 63.1 (92452) - https://sketch.com -->
    <title>Active Connection</title>
    <g id="Icon-/-Connection-ON-00" stroke="none" stroke-width="1" fill="none" fill-rule="evenodd">
        <path
            d="M8.51111448,1.03251142 C8.51841485,1.04931507 8.52462017,1.06684932 8.52863538,1.07671233 C8.52863538,1.07671233 8.76480245,1.66118721 8.99914443,1.98995434 C9.21268034,2.45570776 11.1969218,3.67506849 12.0364647,7.38319635 C12.1203225,7.87022806 12.1640286,8.36333486 12.1671414,8.85753425 C12.1824722,11.8208219 10.6198273,13.6794521 9.75071785,14.483105 L9.75071785,14.483105 L9.73210189,14.4999087 C9.56733773,14.6533026 9.39299375,14.7960564 9.21012521,14.9273059 L9.21012521,14.9273059 L9.18530394,14.9441096 C9.03547295,15.6174795 8.92263461,16.2985619 8.84729666,16.9842922 L8.84729666,16.9842922 L8.5271753,16.9842922 C8.43774573,16.0140639 8.31071924,15.0986301 8.30816411,15.0789041 L8.30816411,15.0818265 L8.26180674,15.0489498 C7.85189078,14.7505023 4.82844123,12.4089498 5.0156958,8.47981735 C5.21645606,4.26684932 7.68325216,2.19561644 8.16398174,1.81936073 C8.47461261,1.48803653 8.48702325,1.36127854 8.51111448,1.03251142 Z M8.67500786,7.32073059 C8.52101561,7.31980594 8.49695432,11.2429256 8.49319475,12.468923 L8.49249853,12.8305023 C8.49249853,13.2593607 8.74728155,14.3987215 9.00023948,14.4290411 C9.00023948,14.4290411 8.8166351,7.32073059 8.67500786,7.32073059 Z"
            id="Combined-Shape"
            fill="#00ED64"
            fill-rule="nonzero"
        ></path>
    </g>
</svg>
