<?xml version="1.0" encoding="UTF-8"?>
<svg width="18px" height="18px" viewBox="0 0 18 18" version="1.1" xmlns="http://www.w3.org/2000/svg" xmlns:xlink="http://www.w3.org/1999/xlink">
    <!-- Generator: Sketch 63.1 (92452) - https://sketch.com -->
    <title>Icon / Database 00</title>
    <g id="Icon-/-Database-00" stroke="none" stroke-width="1" fill="none" fill-rule="evenodd">
        <path d="M15,4.79592187 L15,5.91836384 C15,6.90752902 12.5364665,7.71428571 9.5,7.71428571 C6.46353348,7.71428571 4,6.90752902 4,5.91836384 L4,4.79592187 C4,3.8067567 6.46353348,3 9.5,3 C12.5364665,3 15,3.8067567 15,4.79592187 Z M15,7.32142857 L15,9.84693527 C15,10.8361004 12.5364665,11.6428571 9.5,11.6428571 C6.46353348,11.6428571 4,10.8361004 4,9.84693527 L4,7.32142857 C5.18164062,8.13520759 7.34439286,8.51404464 9.5,8.51404464 C11.6556071,8.51404464 13.8183348,8.13520759 15,7.32142857 Z M15,11.25 L15,13.7755067 C15,14.7646719 12.5364665,15.5714286 9.5,15.5714286 C6.46353348,15.5714286 4,14.7646719 4,13.7755067 L4,11.25 C5.18164062,12.063779 7.34439286,12.4426161 9.5,12.4426161 C11.6556071,12.4426161 13.8183348,12.063779 15,11.25 Z" id="Shape" fill="#061621" fill-rule="nonzero"></path>
    </g>
</svg>
