<?xml version="1.0" encoding="UTF-8"?>
<svg width="16px" height="16px" version="1.1" xmlns="http://www.w3.org/2000/svg" xmlns:xlink="http://www.w3.org/1999/xlink">
  <path fill="#061621" d="M3.64628 6.35378L1.64628 4.35378C1.59979 4.30735 1.56291 4.2522 1.53775 4.1915C1.51258 4.13081 1.49963 4.06574 1.49963 4.00003C1.49963 3.93433 1.51258 3.86926 1.53775 3.80856C1.56291 3.74786 1.59979 3.69272 1.64628 3.64628L3.64628 1.64628C3.7401 1.55246 3.86735 1.49976 4.00003 1.49976C4.13271 1.49976 4.25996 1.55246 4.35378 1.64628C4.4476 1.7401 4.50031 1.86735 4.50031 2.00003C4.50031 2.13272 4.4476 2.25996 4.35378 2.35378L2.7069 4.00003L4.35378 5.64628C4.4476 5.7401 4.50031 5.86735 4.50031 6.00003C4.50031 6.13272 4.4476 6.25996 4.35378 6.35378C4.25996 6.4476 4.13271 6.50031 4.00003 6.50031C3.86735 6.50031 3.7401 6.4476 3.64628 6.35378ZM6.14628 6.35378C6.19271 6.40027 6.24786 6.43715 6.30856 6.46231C6.36926 6.48748 6.43432 6.50043 6.50003 6.50043C6.56573 6.50043 6.6308 6.48748 6.6915 6.46231C6.7522 6.43715 6.80734 6.40027 6.85378 6.35378L8.85378 4.35378C8.90027 4.30735 8.93715 4.2522 8.96231 4.1915C8.98747 4.13081 9.00042 4.06574 9.00042 4.00003C9.00042 3.93433 8.98747 3.86926 8.96231 3.80856C8.93715 3.74786 8.90027 3.69272 8.85378 3.64628L6.85378 1.64628C6.75996 1.55246 6.63271 1.49976 6.50003 1.49976C6.36735 1.49976 6.2401 1.55246 6.14628 1.64628C6.05246 1.7401 5.99975 1.86735 5.99975 2.00003C5.99975 2.13272 6.05246 2.25996 6.14628 2.35378L7.79315 4.00003L6.14628 5.64628C6.09979 5.69272 6.06291 5.74786 6.03775 5.80856C6.01259 5.86926 5.99963 5.93433 5.99963 6.00003C5.99963 6.06574 6.01259 6.13081 6.03775 6.1915C6.06291 6.2522 6.09979 6.30735 6.14628 6.35378ZM12.5 2.50003H11C10.8674 2.50003 10.7402 2.55271 10.6465 2.64648C10.5527 2.74025 10.5 2.86743 10.5 3.00003C10.5 3.13264 10.5527 3.25982 10.6465 3.35359C10.7402 3.44736 10.8674 3.50003 11 3.50003H12.5V12.5H3.50003V8.50003C3.50003 8.36743 3.44735 8.24025 3.35358 8.14648C3.25981 8.05271 3.13264 8.00003 3.00003 8.00003C2.86742 8.00003 2.74024 8.05271 2.64647 8.14648C2.55271 8.24025 2.50003 8.36743 2.50003 8.50003V12.5C2.50003 12.7653 2.60538 13.0196 2.79292 13.2071C2.98046 13.3947 3.23481 13.5 3.50003 13.5H12.5C12.7652 13.5 13.0196 13.3947 13.2071 13.2071C13.3947 13.0196 13.5 12.7653 13.5 12.5V3.50003C13.5 3.23482 13.3947 2.98046 13.2071 2.79293C13.0196 2.60539 12.7652 2.50003 12.5 2.50003Z" />
</svg>
