<?xml version="1.0" encoding="UTF-8"?>
<svg width="16px" height="16px" viewBox="-2 -2 20 20" version="1.1" xmlns="http://www.w3.org/2000/svg" xmlns:xlink="http://www.w3.org/1999/xlink">
    <!-- Generator: Sketch 64 (93537) - https://sketch.com -->
    <title>Icons 24 / VS Code / index2 Copy</title>
    <desc>Created with Sketch.</desc>
    <g id="Icons-24-/-VS-Code-/-index2-Copy" stroke="none" stroke-width="1" fill="none" fill-rule="evenodd">
        <g id="Fill-2" transform="translate(2.000000, 1.000000)" fill="#061621">
            <g id="Group">
                <polygon id="Fill-1" points="0 0 0 0.0496453901 0 14 4.88901869 14 4.88901869 12.0191489 2 12 1.91401869 1.98085106 10 2 10 7 12 7 12 0"></polygon>
                <polygon id="Fill-7" points="3 5 9 5 9 4 3 4"></polygon>
                <polygon id="Fill-7" points="3 8 5 8 5 7 3 7"></polygon>
            </g>
        </g>
        <path d="M9.0209413,7 C10.6893611,7 12.0418826,8.35252149 12.0418826,10.0209413 C12.0418826,10.6944484 11.8214794,11.3164776 11.4488647,11.8188372 C11.6369299,11.8411739 11.882605,11.8345417 12.1920351,11.7641545 L14.5061739,14.0782932 L13.374803,15.2096641 L11.0606643,12.8955253 C11.1259603,12.6084767 11.1363907,12.3762937 11.1197962,12.1926433 C10.5764637,12.718752 9.83643811,13.0418826 9.0209413,13.0418826 C7.35252149,13.0418826 6,11.6893611 6,10.0209413 C6,8.35252149 7.35252149,7 9.0209413,7 Z M9.0209413,8.00698043 C7.90866143,8.00698043 7.00698043,8.90866143 7.00698043,10.0209413 C7.00698043,11.1332212 7.90866143,12.0349022 9.0209413,12.0349022 C10.1332212,12.0349022 11.0349022,11.1332212 11.0349022,10.0209413 C11.0349022,8.90866143 10.1332212,8.00698043 9.0209413,8.00698043 Z" id="Fill-/-All" fill="#061621"></path>
    </g>
</svg>
