<svg width="72" height="72" viewBox="0 0 72 72" fill="none" xmlns="http://www.w3.org/2000/svg">
<path d="M25.2414 22.3231C25.2414 22.3231 33.2069 24.6089 43.4483 22.3231H25.2414Z" fill="#00ED64"/>
<path d="M52.5517 34.2089H51.3569C49.5931 34.2089 48.1707 35.6375 48.1707 37.4089V47.866C48.1707 50.4374 46.0655 52.5517 43.5052 52.5517H25.2414C22.681 52.5517 20.5759 50.4374 20.5759 47.866V37.466C20.5759 35.6946 19.1535 34.266 17.3897 34.266H16.1379" fill="#00ED64"/>
<path d="M52.5517 34.2089H51.3569C49.5931 34.2089 48.1707 32.7803 48.1707 31.0089V25.2374C48.1707 22.666 46.0655 20.5517 43.5052 20.5517H25.2983C22.7379 20.5517 20.6328 22.666 20.6328 25.2374V31.0089C20.6328 32.7803 19.2104 34.2089 17.4466 34.2089H16.1379" fill="#00ED64"/>
<path d="M25.2414 22.3231C25.2414 22.3231 33.2069 24.6089 43.4483 22.3231M52.5517 34.2089H51.3569M51.3569 34.2089C49.5931 34.2089 48.1707 35.6375 48.1707 37.4089V47.866C48.1707 50.4374 46.0655 52.5517 43.5052 52.5517H25.2414C22.681 52.5517 20.5759 50.4374 20.5759 47.866V37.466C20.5759 35.6946 19.1535 34.266 17.3897 34.266H16.1379M51.3569 34.2089C49.5931 34.2089 48.1707 32.7803 48.1707 31.0089V25.2374C48.1707 22.666 46.0655 20.5517 43.5052 20.5517H25.2983C22.7379 20.5517 20.6328 22.666 20.6328 25.2374V31.0089C20.6328 32.7803 19.2104 34.2089 17.4466 34.2089H16.1379" stroke="#001E2B" stroke-miterlimit="10"/>
<path d="M32.6897 7.31035C18.464 8.60364 6.99205 20.0415 6.24649 34.5287C5.64524 46.0022 11.9464 56.2536 21.5544 61.3793" stroke="#001E2B" stroke-miterlimit="10"/>
<path d="M60.2759 71.3104L67.7695 65.375C68.0292 65.1728 68.0764 64.7921 67.8758 64.5305L61.987 56.9655" stroke="#001E2B" stroke-miterlimit="10"/>
<path d="M49.2413 64.6897H68" stroke="#001E2B" stroke-miterlimit="10"/>
<path d="M4 64.6892L34.2288 64.6897C37.0465 64.6897 39.9359 64.6423 42.6819 63.9671C44.9982 63.3985 47.2309 62.5456 49.3442 61.4203C53.4991 59.2171 57.0929 56.0069 59.7315 52.1335C62.3702 48.26 64.1133 43.4982 64.567 38.7126C64.6028 38.3099 64.6387 37.919 64.6506 37.5162C65.4744 21.6552 53.1648 8.12769 37.1779 7.31035" stroke="#001E2B" stroke-miterlimit="10"/>
<path d="M44.8275 0.689661L37.3339 6.62504C37.0742 6.82725 37.027 7.20787 37.2277 7.46956L43.1164 15.0345" stroke="#001E2B" stroke-miterlimit="10"/>
</svg>
