<svg xmlns="http://www.w3.org/2000/svg" width="13px" height="12px" viewBox="0 0 13 12" version="1.1" xmlns:xlink="http://www.w3.org/1999/xlink"><g id="Page-1" stroke="none" stroke-width="1" fill="none" fill-rule="evenodd"><g id="Design-14" transform="translate(-336.000000, -365.000000)"><g id="Icon-/-View" transform="translate(337.000000, 366.000000)"><g id="Group-1360" stroke="#061621" stroke-linecap="round" stroke-linejoin="round"><path d="M8.86363636,2.04545455 C8.86363636,3.05 6.93,3.86363636 4.54545455,3.86363636 C2.16090909,3.86363636 0.227272727,3.05 0.227272727,2.04545455 C0.227272727,1.04181818 2.16090909,0.227272727 4.54545455,0.227272727 C6.93,0.227272727 8.86363636,1.04181818 8.86363636,2.04545455 L8.86363636,2.04545455 Z" id="Stroke-4953"></path><path d="M3.87099403,5.65977545 C1.80671124,5.52347878 0.227272727,4.77152703 0.227272727,3.86363636" id="Stroke-4954"></path><path d="M3.26827777,7.64585965 C1.5072225,7.4165883 0.227272727,6.72601497 0.227272727,5.90918182" id="Stroke-4955"></path><path d="M3.22999516,9.68659475 C1.48858238,9.45240831 0.227272727,8.7653449 0.227272727,7.95431818 L0.227272727,2.04522727" id="Stroke-4956"></path><path d="M8.86363636,2.04545455 L8.86363636,4.45483398" id="Stroke-4957"></path></g><path d="M8,5.5 C6.40909091,5.5 5.05045455,6.48954545 4.5,7.88636364 C5.05045455,9.28318182 6.40909091,10.2727273 8,10.2727273 C9.59090909,10.2727273 10.9495455,9.28318182 11.5,7.88636364 C10.9495455,6.48954545 9.59090909,5.5 8,5.5 L8,5.5 Z M8,9.47727273 C7.12181818,9.47727273 6.40909091,8.76454545 6.40909091,7.88636364 C6.40909091,7.00818182 7.12181818,6.29545455 8,6.29545455 C8.87818182,6.29545455 9.59090909,7.00818182 9.59090909,7.88636364 C9.59090909,8.76454545 8.87818182,9.47727273 8,9.47727273 L8,9.47727273 Z M8,6.93181818 C7.47181818,6.93181818 7.04545455,7.35818182 7.04545455,7.88636364 C7.04545455,8.41454545 7.47181818,8.84090909 8,8.84090909 C8.52818182,8.84090909 8.95454545,8.41454545 8.95454545,7.88636364 C8.95454545,7.35818182 8.52818182,6.93181818 8,6.93181818 L8,6.93181818 Z" id="Shape" fill="#061621"></path></g></g></g></svg>
