<?xml version="1.0" encoding="UTF-8"?>
<svg viewBox="10 10 28 28" version="1.1" xmlns="http://www.w3.org/2000/svg" xmlns:xlink="http://www.w3.org/1999/xlink">
    <title>MongoDB</title>
    <g id="Artboard" stroke="none" stroke-width="1" fill="none" fill-rule="evenodd">
        <path
            d="M30.2011906,20.9684932 C28.6261147,14.0157534 24.903457,11.7294521 24.5028399,10.8561644 C24.0631882,10.239726 23.6201125,9.14383562 23.6201125,9.14383562 C23.6125796,9.12534247 23.6009377,9.09246575 23.5872414,9.0609589 C23.5420436,9.67739726 23.5187598,9.91506849 22.9359817,10.5363014 C22.0340796,11.2417808 17.4060957,15.1253425 17.0294471,23.0246575 C16.6781367,30.3917808 22.3504644,34.7821918 23.1195123,35.3417808 L23.2064839,35.4034247 L23.2064839,35.3979452 C23.2112776,35.4349315 23.4495934,37.1513699 23.6173733,38.9705479 L24.2179566,38.9705479 C24.3592989,37.6848036 24.5709962,36.407774 24.8520958,35.1452055 L24.8986633,35.1136986 C25.241745,34.8676058 25.5688337,34.5999424 25.8779496,34.3123288 L25.9128752,34.2808219 C27.5434212,32.7739726 30.4751168,29.2890411 30.4463546,23.7328767 C30.4405146,22.8062529 30.3585171,21.8816776 30.2011906,20.9684932 L30.2011906,20.9684932 Z M23.5523158,31.1821918 C23.5523158,31.1821918 23.5523158,20.8493151 23.8947236,20.8513699 C24.1604321,20.8513699 24.5048943,34.1794521 24.5048943,34.1794521 C24.0303171,34.1226027 23.5523158,31.9863014 23.5523158,31.1821918 Z"
            id="Shape"
            fill="#061621"
            fill-rule="nonzero"
        ></path>
    </g>
</svg>
