<?xml version="1.0" encoding="UTF-8"?>
<svg width="18px" height="18px" viewBox="0 0 18 18" version="1.1" xmlns="http://www.w3.org/2000/svg" xmlns:xlink="http://www.w3.org/1999/xlink">
    <!-- Generator: Sketch 63.1 (92452) - https://sketch.com -->
    <title>Icon / Date 00</title>
    <g id="Icon-/-Date-00" stroke="none" stroke-width="1" fill="none" fill-rule="evenodd">
        <path d="M15.25,7.25 L15.25,14.6875 C15.25,15.3668213 14.7332993,15.9259796 14.0716519,15.9932208 L13.9375,16 L4.3125,16 C3.63317871,16 3.07402039,15.4832993 3.00677919,14.8216519 L3,14.6875 L3,7.25 L15.25,7.25 Z M13.171875,12.5 L12.078125,12.5 C11.9202148,12.5 11.7874268,12.6130493 11.7566971,12.7622116 L11.75,12.828125 L11.75,13.921875 C11.75,14.0797852 11.8630493,14.2125732 12.0122116,14.2433029 L12.078125,14.25 L13.171875,14.25 C13.3297852,14.25 13.4625732,14.1369507 13.4933029,13.9877884 L13.5,13.921875 L13.5,12.828125 C13.5,12.6476562 13.3523438,12.5 13.171875,12.5 Z M9.671875,12.5 L8.578125,12.5 C8.42021484,12.5 8.28742676,12.6130493 8.25669708,12.7622116 L8.25,12.828125 L8.25,13.921875 C8.25,14.0797852 8.36304932,14.2125732 8.51221161,14.2433029 L8.578125,14.25 L9.671875,14.25 C9.82978516,14.25 9.96257324,14.1369507 9.99330292,13.9877884 L10,13.921875 L10,12.828125 C10,12.6476562 9.85234375,12.5 9.671875,12.5 Z M6.171875,12.5 L5.078125,12.5 C4.92021484,12.5 4.78742676,12.6130493 4.75669708,12.7622116 L4.75,12.828125 L4.75,13.921875 C4.75,14.0797852 4.86304932,14.2125732 5.01221161,14.2433029 L5.078125,14.25 L6.171875,14.25 C6.32978516,14.25 6.46257324,14.1369507 6.49330292,13.9877884 L6.5,13.921875 L6.5,12.828125 C6.5,12.6476562 6.35234375,12.5 6.171875,12.5 Z M13.171875,9 L12.078125,9 C11.9202148,9 11.7874268,9.11304932 11.7566971,9.26221161 L11.75,9.328125 L11.75,10.421875 C11.75,10.5797852 11.8630493,10.7125732 12.0122116,10.7433029 L12.078125,10.75 L13.171875,10.75 C13.3297852,10.75 13.4625732,10.6369507 13.4933029,10.4877884 L13.5,10.421875 L13.5,9.328125 C13.5,9.14765625 13.3523438,9 13.171875,9 Z M9.671875,9 L8.578125,9 C8.42021484,9 8.28742676,9.11304932 8.25669708,9.26221161 L8.25,9.328125 L8.25,10.421875 C8.25,10.5797852 8.36304932,10.7125732 8.51221161,10.7433029 L8.578125,10.75 L9.671875,10.75 C9.82978516,10.75 9.96257324,10.6369507 9.99330292,10.4877884 L10,10.421875 L10,9.328125 C10,9.14765625 9.85234375,9 9.671875,9 Z M6.171875,9 L5.078125,9 C4.92021484,9 4.78742676,9.11304932 4.75669708,9.26221161 L4.75,9.328125 L4.75,10.421875 C4.75,10.5797852 4.86304932,10.7125732 5.01221161,10.7433029 L5.078125,10.75 L6.171875,10.75 C6.32978516,10.75 6.46257324,10.6369507 6.49330292,10.4877884 L6.5,10.421875 L6.5,9.328125 C6.5,9.14765625 6.35234375,9 6.171875,9 Z M6.9375,2 C7.178125,2 7.375,2.196875 7.375,2.4375 L7.375,2.4375 L7.375,3.75 L10.875,3.75 L10.875,2.4375 C10.875,2.196875 11.071875,2 11.3125,2 L11.3125,2 L12.1875,2 C12.428125,2 12.625,2.196875 12.625,2.4375 L12.625,2.4375 L12.625,3.75 L13.9375,3.75 C14.6621094,3.75 15.25,4.33789062 15.25,5.0625 L15.25,5.0625 L15.25,6.375 L3,6.375 L3,5.0625 C3,4.33789062 3.58789062,3.75 4.3125,3.75 L4.3125,3.75 L5.625,3.75 L5.625,2.4375 C5.625,2.196875 5.821875,2 6.0625,2 L6.0625,2 Z" id="Combined-Shape" fill="#061621" fill-rule="nonzero"></path>
    </g>
</svg>
