<?xml version="1.0" encoding="UTF-8"?>
<svg width="18px" height="18px" viewBox="0 0 18 18" version="1.1" xmlns="http://www.w3.org/2000/svg" xmlns:xlink="http://www.w3.org/1999/xlink">
    <!-- Generator: Sketch 63.1 (92452) - https://sketch.com -->
    <title>Icon / Double-128 00</title>
    <g id="Icon-/-Double-128-00" stroke="none" stroke-width="1" fill="none" fill-rule="evenodd">
        <path d="M8.5,12 C9.05228475,12 9.5,12.4477153 9.5,13 C9.5,13.5522847 9.05228475,14 8.5,14 C7.94771525,14 7.5,13.5522847 7.5,13 C7.5,12.4477153 7.94771525,12 8.5,12 Z M3.5,5 C3.72151357,5 3.9010858,5.17957223 3.9010858,5.4010858 C3.9010858,5.43034996 3.89788306,5.45952623 3.89153477,5.48809353 L3.55460379,6.999 L5.55560379,6.999 L5.91299227,5.39153477 C5.96382978,5.16276599 6.16673648,5 6.4010858,5 L6.5,5 C6.72151357,5 6.9010858,5.17957223 6.9010858,5.4010858 C6.9010858,5.43034996 6.89788306,5.45952623 6.89153477,5.48809353 L6.55460379,6.999 L7.2432692,7 C7.48082179,7 7.67339621,7.19257442 7.67339621,7.43012701 C7.67339621,7.45353467 7.67148544,7.47690326 7.66768293,7.5 L7.65431074,7.58122367 C7.61454465,7.8227658 7.4057458,8 7.16095213,8 L6.33260379,7.999 L5.88860379,9.999 L6.5432692,10 C6.78082179,10 6.97339621,10.1925744 6.97339621,10.430127 C6.97339621,10.4535347 6.97148544,10.4769033 6.96768293,10.5 L6.95431074,10.5812237 C6.91454465,10.8227658 6.7057458,11 6.46095213,11 L5.66560379,10.999 L5.30551578,12.625179 C5.25474833,12.8536325 5.05231069,13.0163094 4.81828466,13.016713 L4.71846996,13.0168852 C4.49726272,13.0172667 4.31762952,12.8382522 4.31724797,12.6170449 C4.31719717,12.5875902 4.32039559,12.5582198 4.32678521,12.5294665 L4.66660379,10.999 L2.66560379,10.999 L2.30551578,12.625179 C2.25474833,12.8536325 2.05231069,13.0163094 1.81828466,13.016713 L1.71846996,13.0168852 C1.49726272,13.0172667 1.31762952,12.8382522 1.31724797,12.6170449 C1.31719717,12.5875902 1.32039559,12.5582198 1.32678521,12.5294665 L1.66660379,10.999 L0.806730797,11 C0.569178209,11 0.376603788,10.8074256 0.376603788,10.569873 C0.376603788,10.5464653 0.378514562,10.5230967 0.382317073,10.5 L0.395689263,10.4187763 C0.435455345,10.1772342 0.644254201,10 0.88904787,10 L1.88860379,9.999 L2.33360379,7.999 L1.5067308,8 C1.26917821,8 1.07660379,7.80742558 1.07660379,7.56987299 C1.07660379,7.54646533 1.07851456,7.52309674 1.08231707,7.5 L1.09568926,7.41877633 C1.13545535,7.1772342 1.3442542,7 1.58904787,7 L2.55560379,6.999 L2.91299227,5.39153477 C2.96382978,5.16276599 3.16673648,5 3.4010858,5 L3.5,5 Z M12.3055158,12.625179 C12.2547483,12.8536325 12.0523107,13.0163094 11.8182847,13.016713 L11.71847,13.0168852 C11.4972627,13.0172667 11.3176295,12.8382522 11.317248,12.6170449 C11.3171972,12.5875902 11.3203956,12.5582198 11.3267852,12.5294665 L11.6666038,10.999 L10.8067308,11 C10.5691782,11 10.3766038,10.8074256 10.3766038,10.569873 C10.3766038,10.5464653 10.3785146,10.5230967 10.3823171,10.5 L10.3956893,10.4187763 C10.4354553,10.1772342 10.6442542,10 10.8890479,10 L11.8886038,9.999 L12.3336038,7.999 L11.5067308,8 C11.2691782,8 11.0766038,7.80742558 11.0766038,7.56987299 C11.0766038,7.54646533 11.0785146,7.52309674 11.0823171,7.5 L11.0956893,7.41877633 C11.1354553,7.1772342 11.3442542,7 11.5890479,7 L12.5556038,6.999 L12.9129923,5.39153477 C12.9638298,5.16276599 13.1667365,5 13.4010858,5 L13.5,5 C13.7215136,5 13.9010858,5.17957223 13.9010858,5.4010858 C13.9010858,5.43034996 13.8978831,5.45952623 13.8915348,5.48809353 L13.5546038,6.999 L15.5556038,6.999 L15.9129923,5.39153477 C15.9638298,5.16276599 16.1667365,5 16.4010858,5 L16.5,5 C16.7215136,5 16.9010858,5.17957223 16.9010858,5.4010858 C16.9010858,5.43034996 16.8978831,5.45952623 16.8915348,5.48809353 L16.5546038,6.999 L17.2432692,7 C17.4808218,7 17.6733962,7.19257442 17.6733962,7.43012701 C17.6733962,7.45353467 17.6714854,7.47690326 17.6676829,7.5 L17.6543107,7.58122367 C17.6145447,7.8227658 17.4057458,8 17.1609521,8 L16.3326038,7.999 L15.8886038,9.999 L16.5432692,10 C16.7808218,10 16.9733962,10.1925744 16.9733962,10.430127 C16.9733962,10.4535347 16.9714854,10.4769033 16.9676829,10.5 L16.9543107,10.5812237 C16.9145447,10.8227658 16.7057458,11 16.4609521,11 L15.6656038,10.999 L15.3055158,12.625179 C15.2547483,12.8536325 15.0523107,13.0163094 14.8182847,13.016713 L14.71847,13.0168852 C14.4972627,13.0172667 14.3176295,12.8382522 14.317248,12.6170449 C14.3171972,12.5875902 14.3203956,12.5582198 14.3267852,12.5294665 L14.6666038,10.999 L12.6656038,10.999 L12.3055158,12.625179 Z M12.8886038,9.999 L14.8886038,9.999 L15.3336038,7.999 L13.3326038,7.999 L12.8886038,9.999 Z M5.33360379,7.999 L3.33260379,7.999 L2.88860379,9.999 L4.88860379,9.999 L5.33360379,7.999 Z" id="Combined-Shape" fill="#061621" fill-rule="nonzero"></path>
    </g>
</svg>
