<?xml version="1.0" encoding="UTF-8"?>
<svg width="18px" height="18px" viewBox="0 0 18 18" version="1.1" xmlns="http://www.w3.org/2000/svg" xmlns:xlink="http://www.w3.org/1999/xlink">
    <!-- Generator: Sketch 63.1 (92452) - https://sketch.com -->
    <title>Icon / Object 00</title>
    <g id="Icon-/-Object-00" stroke="none" stroke-width="1" fill="none" fill-rule="evenodd">
        <path d="M8.13867188,3 L8.13867188,4.11328125 L7.41796875,4.11328125 C7.01171672,4.11328125 6.74023506,4.19531168 6.60351562,4.359375 C6.46679619,4.52343832 6.3984375,4.88476283 6.3984375,5.44335938 L6.3984375,6.66796875 C6.3984375,7.31250322 6.30273533,7.76562369 6.11132812,8.02734375 C5.91992092,8.28906381 5.57812746,8.45703088 5.0859375,8.53125 C5.57812746,8.61328166 5.91992092,8.78710805 6.11132812,9.05273438 C6.30273533,9.3183607 6.3984375,9.77148117 6.3984375,10.4121094 L6.3984375,11.6132812 C6.3984375,12.1757841 6.46679619,12.5400382 6.60351562,12.7060547 C6.74023506,12.8720711 7.01171672,12.9550781 7.41796875,12.9550781 L8.13867188,12.9550781 L8.13867188,14.0742188 L7.25976562,14.0742188 C6.28710451,14.0742188 5.63574384,13.9296889 5.30566406,13.640625 C4.97558429,13.3515611 4.81054688,12.7753949 4.81054688,11.9121094 L4.81054688,10.6523438 C4.81054688,10.0624971 4.70605573,9.65527456 4.49707031,9.43066406 C4.28808489,9.20605356 3.91015898,9.09375 3.36328125,9.09375 L3,9.09375 L3,7.97460938 L3.36328125,7.97460938 C3.91015898,7.97460938 4.28808489,7.86328236 4.49707031,7.640625 C4.70605573,7.41796764 4.81054688,7.00976859 4.81054688,6.41601562 L4.81054688,5.15625 C4.81054688,4.29296443 4.97558429,3.71777487 5.30566406,3.43066406 C5.63574384,3.14355325 6.28710451,3 7.25976562,3 L8.13867188,3 Z M10.8789062,3 C11.8476611,3 12.4951156,3.14355325 12.8212891,3.43066406 C13.1474626,3.71777487 13.3105469,4.29296443 13.3105469,5.15625 L13.3105469,6.41601562 C13.3105469,7.00586232 13.4169911,7.41308481 13.6298828,7.63769531 C13.8427745,7.86230581 14.2246066,7.97460938 14.7753906,7.97460938 L15.1386719,7.97460938 L15.1386719,9.09375 L14.7753906,9.09375 C14.2246066,9.09375 13.8427745,9.20703012 13.6298828,9.43359375 C13.4169911,9.66015738 13.3105469,10.0664033 13.3105469,10.6523438 L13.3105469,11.9121094 C13.3105469,12.7753949 13.1474626,13.3515611 12.8212891,13.640625 C12.4951156,13.9296889 11.8476611,14.0742188 10.8789062,14.0742188 L10,14.0742188 L10,12.9550781 L10.7089844,12.9550781 C11.1152364,12.9550781 11.3886712,12.8710946 11.5292969,12.703125 C11.6699226,12.5351554 11.7402344,12.1718778 11.7402344,11.6132812 L11.7402344,10.4121094 C11.7402344,9.77148117 11.8359365,9.3183607 12.0273438,9.05273438 C12.218751,8.78710805 12.5585913,8.61328166 13.046875,8.53125 C12.554685,8.45703088 12.2138681,8.28906381 12.0244141,8.02734375 C11.83496,7.76562369 11.7402344,7.31250322 11.7402344,6.66796875 L11.7402344,5.44335938 C11.7402344,4.89257537 11.6708991,4.53320396 11.5322266,4.36523438 C11.393554,4.19726479 11.1191427,4.11328125 10.7089844,4.11328125 L10,4.11328125 L10,3 L10.8789062,3 Z" id="Combined-Shape" fill="#061621" fill-rule="nonzero"></path>
    </g>
</svg>
