<?xml version="1.0" encoding="UTF-8"?>
<svg width="18px" height="18px" viewBox="0 0 18 18" version="1.1" xmlns="http://www.w3.org/2000/svg" xmlns:xlink="http://www.w3.org/1999/xlink">
    <!-- Generator: Sketch 63.1 (92452) - https://sketch.com -->
    <title>Icon / Regex 00</title>
    <g id="Icon-/-Regex-00" stroke="none" stroke-width="1" fill="none" fill-rule="evenodd">
        <path d="M5,12 C5.55228475,12 6,12.4477153 6,13 C6,13.5522847 5.55228475,14 5,14 C4.44771525,14 4,13.5522847 4,13 C4,12.4477153 4.44771525,12 5,12 Z M10.5,2 C10.7761424,2 11,2.22385763 11,2.5 L11,6.028 L13.7093809,4.09313326 C13.9340872,3.93262877 14.2463622,3.98467461 14.4068667,4.2093809 C14.5673712,4.4340872 14.5153254,4.74636224 14.2906191,4.90686674 L11.359,7 L14.2906191,9.09313326 C14.490358,9.23580393 14.5536739,9.49839206 14.4525507,9.71280202 L14.4068667,9.7906191 C14.2463622,10.0153254 13.9340872,10.0673712 13.7093809,9.90686674 L13.7093809,9.90686674 L11,7.971 L11,11.5 C11,11.7761424 10.7761424,12 10.5,12 C10.2238576,12 10,11.7761424 10,11.5 L10,7.97 L7.2906191,9.90686674 C7.0659128,10.0673712 6.75363776,10.0153254 6.59313326,9.7906191 C6.43262877,9.5659128 6.48467461,9.25363776 6.7093809,9.09313326 L9.64,6.999 L6.7093809,4.90686674 C6.50964198,4.76419607 6.44632612,4.50160794 6.54744928,4.28719798 L6.59313326,4.2093809 C6.75363776,3.98467461 7.0659128,3.93262877 7.2906191,4.09313326 L7.2906191,4.09313326 L10,6.029 L10,2.5 C10,2.22385763 10.2238576,2 10.5,2 Z" id="Combined-Shape" fill="#061621" fill-rule="nonzero"></path>
    </g>
</svg>
