<?xml version="1.0" encoding="UTF-8"?>
<svg width="18px" height="18px" viewBox="0 0 18 18" version="1.1" xmlns="http://www.w3.org/2000/svg" xmlns:xlink="http://www.w3.org/1999/xlink">
    <!-- Generator: Sketch 63.1 (92452) - https://sketch.com -->
    <title>Icon / Binary 00</title>
    <g id="Icon-/-Binary-00" stroke="none" stroke-width="1" fill="none" fill-rule="evenodd">
        <path d="M11.1453804,9.79821826 C11.8648588,9.79821826 12.4030171,10.0781766 12.7598552,10.6380933 C13.1166933,11.19801 13.2951124,12.0422368 13.2951124,13.1707736 C13.2951124,14.2964093 13.1166933,15.1391855 12.7598552,15.6991022 C12.4030171,16.2590189 11.8648588,16.5389772 11.1453804,16.5389772 C10.428803,16.5389772 9.89209528,16.2582936 9.53525717,15.6969263 C9.17841906,15.1355591 9,14.2935081 9,13.1707736 C9,12.0451379 9.17841906,11.2016364 9.53525717,10.6402692 C9.89209528,10.0789019 10.428803,9.79821826 11.1453804,9.79821826 Z M6.96784869,9.91571374 L6.96784869,15.2813405 L8.40390451,15.2813405 L8.40390451,16.4127784 L4.28285948,16.4127784 L4.28285948,15.2813405 L5.7189153,15.2813405 L5.7189153,11.0645584 L4.38294822,11.3952864 L4.38294822,10.2377384 L5.72761867,9.91571374 L6.96784869,9.91571374 Z M11.9722004,12.3613603 L10.4534626,14.7808968 L10.475221,14.84726 L10.4969794,14.9070956 C10.6333322,15.269736 10.8494658,15.4510562 11.1453804,15.4510562 C11.444196,15.4510562 11.6617802,15.269736 11.798133,14.9070956 C11.9344858,14.5444553 12.0026622,13.9656813 12.0026622,13.1707736 C12.0026622,12.8690568 11.9925082,12.5992524 11.9722004,12.3613603 Z M11.1453804,10.8861393 C10.8494658,10.8861393 10.6333322,11.0674595 10.4969794,11.4300999 C10.3606266,11.7927402 10.2924502,12.3729648 10.2924502,13.1707736 C10.2924502,13.3351706 10.295029,13.4898971 10.3001866,13.6349533 L10.309857,13.8452847 L11.8068364,11.45621 L11.798133,11.4300999 C11.6617802,11.0674595 11.444196,10.8861393 11.1453804,10.8861393 Z M6.14538036,2 C6.86485883,2 7.40301712,2.27995836 7.75985523,2.83987507 C8.11669335,3.39979178 8.2951124,4.24401854 8.2951124,5.37255533 C8.2951124,6.498191 8.11669335,7.3409672 7.75985523,7.90088391 C7.40301712,8.46080062 6.86485883,8.74075898 6.14538036,8.74075898 C5.42880301,8.74075898 4.89209528,8.46007534 4.53525717,7.89870807 C4.17841906,7.33734079 4,6.49528988 4,5.37255533 C4,4.24691966 4.17841906,3.40341819 4.53525717,2.84205091 C4.89209528,2.28068364 5.42880301,2 6.14538036,2 Z M11.9649892,2.11749548 L11.9649892,7.48312222 L13.401045,7.48312222 L13.401045,8.61456013 L9.28,8.61456013 L9.28,7.48312222 L10.7160558,7.48312222 L10.7160558,3.26634013 L9.38008874,3.59706814 L9.38008874,2.43952011 L10.7247592,2.11749548 L11.9649892,2.11749548 Z M6.97220038,4.56314205 L5.45346256,6.98267852 L5.47522098,7.04904171 L5.4969794,7.10887737 C5.63333217,7.47151772 5.84946583,7.6528379 6.14538036,7.6528379 C6.44419601,7.6528379 6.66178023,7.47151772 6.798133,7.10887737 C6.93448578,6.74623701 7.00266217,6.167463 7.00266217,5.37255533 C7.00266217,5.07083855 6.99250824,4.80103413 6.97220038,4.56314205 Z M6.14538036,3.08792107 C5.84946583,3.08792107 5.63333217,3.26924125 5.4969794,3.63188161 C5.36062662,3.99452197 5.29245024,4.57474654 5.29245024,5.37255533 C5.29245024,5.53695229 5.29502901,5.69167885 5.30018656,5.83673499 L5.30985697,6.0470664 L6.80683637,3.65799172 L6.798133,3.63188161 L6.74967351,3.51771705 C6.61242532,3.2311864 6.41099427,3.08792107 6.14538036,3.08792107 Z" id="Combined-Shape" fill="#d4d4d4" fill-rule="nonzero"></path>
    </g>
</svg>
