<?xml version="1.0" encoding="UTF-8"?>
<svg width="18px" height="18px" viewBox="0 0 18 18" version="1.1" xmlns="http://www.w3.org/2000/svg" xmlns:xlink="http://www.w3.org/1999/xlink">
    <!-- Generator: Sketch 63.1 (92452) - https://sketch.com -->
    <title>Icon / JS 00</title>
    <g id="Icon-/-JS-00" stroke="none" stroke-width="1" fill="none" fill-rule="evenodd">
        <path d="M3.54990177,13.9361392 C6.19360982,13.9361392 6.46709686,12.2170778 6.46709686,11.5268486 L6.46709686,4.54641746 L4.77408186,4.54641746 L4.77408186,10.6803411 C4.77408186,11.3705703 4.72198909,12.2561473 3.39362347,12.2561473 C3.13315962,12.2561473 2.95083492,12.230101 2.482,12.1259154 L2.482,13.8189304 C2.9899045,13.9361392 3.3285075,13.9361392 3.54990177,13.9361392 Z M11.3030423,13.9752087 C12.9439645,13.9752087 15.21,13.2849795 15.21,11.0059209 C15.21,9.15662756 13.6732633,8.59663029 12.2276889,8.28407367 L11.2639727,8.07570259 C10.2872333,7.86733151 9.5839809,7.69803001 9.5839809,6.98175443 C9.5839809,6.00501501 10.9123465,5.86175989 11.3030423,5.86175989 C12.7486166,5.86175989 13.4127995,6.76036016 13.6993097,7.22919509 L15.1188377,6.17431651 C13.8425648,4.44223192 12.2276889,4.312 11.4072278,4.312 C9.08909959,4.312 7.77375716,5.54920327 7.77375716,7.17710232 C7.77375716,8.97430286 9.23235471,9.46918417 10.404442,9.72964802 L11.5765293,9.99011187 C12.7355935,10.2505757 13.3476835,10.4198772 13.3476835,11.1752224 C13.3476835,11.9696371 12.5793151,12.3863793 11.5765293,12.3863793 C9.88351432,12.3863793 9.12816917,11.6049877 8.7244502,11.0059209 L7.27887585,12.0087067 C8.09933697,13.4282347 9.76630559,13.9752087 11.3030423,13.9752087 Z" id="JS" fill="#d4d4d4" fill-rule="nonzero"></path>
    </g>
</svg>
