<?xml version="1.0" encoding="UTF-8"?>
<svg width="18px" height="18px" viewBox="0 0 18 18" version="1.1" xmlns="http://www.w3.org/2000/svg" xmlns:xlink="http://www.w3.org/1999/xlink">
    <!-- Generator: Sketch 63.1 (92452) - https://sketch.com -->
    <title>Icon / Mixed 00</title>
    <g id="Icon-/-Mixed-00" stroke="none" stroke-width="1" fill="none" fill-rule="evenodd">
        <path d="M12.8214286,3 L4.17857143,3 C3.52765625,3 3,3.52765625 3,4.17857143 L3,12.8214286 C3,13.4723438 3.52765625,14 4.17857143,14 L12.8214286,14 C13.4723438,14 14,13.4723438 14,12.8214286 L14,4.17857143 C14,3.52765625 13.4723438,3 12.8214286,3 Z M8.5,12.7723214 C7.87719866,12.7723214 7.37053571,12.2656339 7.37053571,11.6428571 C7.37053571,11.0200558 7.87719866,10.5133929 8.5,10.5133929 C9.12280134,10.5133929 9.62946429,11.0200558 9.62946429,11.6428571 C9.62946429,12.2656339 9.12280134,12.7723214 8.5,12.7723214 Z M9.48214286,9.54762723 L9.48214286,9.58035714 C9.48214286,9.74307366 9.35021652,9.875 9.1875,9.875 L7.8125,9.875 C7.64978348,9.875 7.51785714,9.74307366 7.51785714,9.58035714 L7.51785714,9.48214286 C7.51785714,8.47399777 8.28216071,8.071 8.85975893,7.7471875 C9.35502902,7.46951116 9.65858482,7.28066964 9.65858482,6.91295536 C9.65858482,6.42654911 9.03814062,6.10371875 8.53653571,6.10371875 C7.86892411,6.10371875 7.56819196,6.42632813 7.12954241,6.98266295 C7.03022321,7.10862277 6.84815848,7.13167857 6.72035714,7.03476563 L5.86837277,6.38876116 C5.74393527,6.29440179 5.71488839,6.11935938 5.80170982,5.9895692 C6.471875,4.98778348 7.32530804,4.42410714 8.66340402,4.42410714 C10.0473906,4.42410714 11.5246562,5.50441518 11.5246562,6.92857143 C11.5246562,8.8196875 9.48214286,8.84878348 9.48214286,9.54762723 Z" id="Shape" fill="#d4d4d4" fill-rule="nonzero"></path>
    </g>
</svg>
