<?xml version="1.0" encoding="UTF-8"?>
<svg width="18px" height="18px" viewBox="0 0 18 18" version="1.1" xmlns="http://www.w3.org/2000/svg" xmlns:xlink="http://www.w3.org/1999/xlink">
    <!-- Generator: Sketch 63.1 (92452) - https://sketch.com -->
    <title>Icon / Null 00</title>
    <desc>Created with Sketch.</desc>
    <g id="Icon-/-Null-00" stroke="none" stroke-width="1" fill="none" fill-rule="evenodd">
        <path d="M14.8900781,3.64007813 L14.3599219,3.10992188 C14.2134375,2.9634375 13.9760156,2.9634375 13.8295313,3.10992188 L12.1399219,4.79953125 C11.2633594,4.14328125 10.1791406,3.75 9,3.75 C6.10054688,3.75 3.75,6.10054688 3.75,9 C3.75,10.1789063 4.14328125,11.2633594 4.79953125,12.1396875 L3.10992188,13.8295313 C2.9634375,13.9760156 2.9634375,14.2134375 3.10992188,14.3599219 L3.6403125,14.8903125 C3.78679688,15.0367969 4.02421875,15.0367969 4.17070313,14.8903125 L5.8603125,13.2007031 C6.73664063,13.8567188 7.82109375,14.25 9,14.25 C11.8994531,14.25 14.25,11.8994531 14.25,9 C14.25,7.82109375 13.8567188,6.73664063 13.2004688,5.8603125 L14.8900781,4.17070313 C15.0365625,4.02398438 15.0365625,3.7865625 14.8900781,3.64007813 Z M5.625,9 C5.625,7.1390625 7.1390625,5.625 9,5.625 C9.65882813,5.625 10.269375,5.82210938 10.7894531,6.14976563 L6.14976563,10.7894531 C5.82210938,10.269375 5.625,9.65882813 5.625,9 Z M12.375,9 C12.375,10.8609375 10.8609375,12.375 9,12.375 C8.34117188,12.375 7.730625,12.1778906 7.21054688,11.8502344 L11.85,7.21054688 C12.1778906,7.730625 12.375,8.34117188 12.375,9 Z" id="Shape" fill="#d4d4d4" fill-rule="nonzero"></path>
    </g>
</svg>
