<?xml version="1.0" encoding="UTF-8"?>
<svg width="18px" height="18px" viewBox="0 0 18 18" version="1.1" xmlns="http://www.w3.org/2000/svg" xmlns:xlink="http://www.w3.org/1999/xlink">
    <!-- Generator: Sketch 63.1 (92452) - https://sketch.com -->
    <title>Object Id</title>
    <g id="Icon-/-ObID-01" stroke="none" stroke-width="1" fill="none" fill-rule="evenodd">
        <g id="key-solid" transform="translate(3.000000, 3.000000)" fill="#d4d4d4" fill-rule="nonzero">
            <path d="M12,4.12502344 C12,6.40319531 10.1531719,8.25 7.875,8.25 C7.61203125,8.25 7.35492188,8.22510937 7.10561719,8.17807031 L6.54283594,8.81121094 C6.43609148,8.93129937 6.28308643,9 6.12241406,9 L5.25,9 L5.25,9.9375 C5.25,10.2481641 4.99816406,10.5 4.6875,10.5 L3.75,10.5 L3.75,11.4375 C3.75,11.7481641 3.49816406,12 3.1875,12 L0.5625,12 C0.251835937,12 0,11.7481641 0,11.4375 L0,9.60799219 C0,9.4588125 0.0592734375,9.31572656 0.164742187,9.21023438 L3.95697656,5.418 C3.82284375,5.01126563 3.75,4.57666406 3.75,4.125 C3.75,1.84682813 5.59680469,0 7.87497656,0 C10.159875,0 12,1.84010156 12,4.12502344 Z M7.875,3 C7.875,3.62132812 8.37867188,4.125 9,4.125 C9.62132812,4.125 10.125,3.62132812 10.125,3 C10.125,2.37867188 9.62132812,1.875 9,1.875 C8.37867188,1.875 7.875,2.37867187 7.875,3 Z" id="Shape"></path>
        </g>
    </g>
</svg>
