<?xml version="1.0" encoding="UTF-8"?>
<svg width="18px" height="18px" viewBox="0 0 18 18" version="1.1" xmlns="http://www.w3.org/2000/svg" xmlns:xlink="http://www.w3.org/1999/xlink">
    <!-- Generator: Sketch 63.1 (92452) - https://sketch.com -->
    <title>Icon / ObID 00</title>
    <g id="Icon-/-ObID-00" stroke="none" stroke-width="1" fill="none" fill-rule="evenodd">
        <path d="M9.0000046,3.57141733 C10.647328,3.57141733 12.0000082,4.92409752 12.0000082,6.57141733 L12.0000082,6.57141733 L12.0000082,7.85713673 L12.2142941,7.85713673 C12.5692053,7.85713673 12.8571521,8.1450835 12.8571521,8.49999464 L12.8571521,8.49999464 L12.8571521,12.3571421 C12.8571521,12.7120532 12.5692053,13 12.2142941,13 L12.2142941,13 L5.78571505,13 C5.43080391,13 5.14285714,12.7120532 5.14285714,12.3571421 L5.14285714,12.3571421 L5.14285714,8.49999464 C5.14285714,8.1450835 5.43080391,7.85713673 5.78571505,7.85713673 L5.78571505,7.85713673 L6.00000102,7.85713673 L6.00000102,6.57141733 C6.00000102,4.92409752 7.35268121,3.57141733 9.0000046,3.57141733 Z M9.0000046,4.85713315 C8.05580704,4.85713315 7.28571684,5.62722335 7.28571684,6.57142091 L7.28571684,6.57142091 L7.28571684,7.85713315 L10.7142924,7.85713315 L10.7142924,6.57142091 C10.7142924,5.62722335 9.94420215,4.85713315 9.0000046,4.85713315 Z" id="Combined-Shape" fill="#d4d4d4" fill-rule="nonzero"></path>
    </g>
</svg>
