<?xml version="1.0" encoding="UTF-8"?>
<svg width="18px" height="18px" viewBox="0 0 18 18" version="1.1" xmlns="http://www.w3.org/2000/svg" xmlns:xlink="http://www.w3.org/1999/xlink">
    <!-- Generator: Sketch 63.1 (92452) - https://sketch.com -->
    <title>Icon / Timestamp 00</title>
    <g id="Icon-/-Timestamp-00" stroke="none" stroke-width="1" fill="none" fill-rule="evenodd">
        <path d="M9,3 C5.68548387,3 3,5.68548387 3,9 C3,12.3145161 5.68548387,15 9,15 C12.3145161,15 15,12.3145161 15,9 C15,5.68548387 12.3145161,3 9,3 Z M9,13.8387097 C6.3266129,13.8387097 4.16129032,11.6733871 4.16129032,9 C4.16129032,6.3266129 6.3266129,4.16129032 9,4.16129032 C11.6733871,4.16129032 13.8387097,6.3266129 13.8387097,9 C13.8387097,11.6733871 11.6733871,13.8387097 9,13.8387097 Z M10.4951613,11.3129032 L8.44112903,9.82016129 C8.36612903,9.76451613 8.32258065,9.67741935 8.32258065,9.58548387 L8.32258065,5.61290323 C8.32258065,5.45322581 8.45322581,5.32258065 8.61290323,5.32258065 L9.38709677,5.32258065 C9.54677419,5.32258065 9.67741935,5.45322581 9.67741935,5.61290323 L9.67741935,9.04112903 L11.2935484,10.2169355 C11.4241935,10.3112903 11.4508065,10.4927419 11.3564516,10.6233871 L10.9016129,11.25 C10.8072581,11.3782258 10.6258065,11.4072581 10.4951613,11.3129032 Z" id="Shape" fill="#d4d4d4" fill-rule="nonzero"></path>
    </g>
</svg>
