<?xml version="1.0" encoding="UTF-8"?>
<svg width="18px" height="18px" viewBox="0 0 18 18" version="1.1" xmlns="http://www.w3.org/2000/svg" xmlns:xlink="http://www.w3.org/1999/xlink">
    <!-- Generator: Sketch 63.1 (92452) - https://sketch.com -->
    <title>Icon / Nominal 00</title>
    <g id="Icon-/-Nominal-00" stroke="none" stroke-width="1" fill="none" fill-rule="evenodd">
        <path d="M14.5647454,13.8571439 C14.5647454,13.7968759 14.5714419,13.7433045 14.5714419,13.6830365 C14.5714419,13.5558042 14.5513525,13.4285719 14.5312632,13.3013396 C14.2165307,13.1808038 13.6004586,13.1406252 13.3794761,12.9665178 C13.285726,12.892857 13.1919759,12.6919639 13.1451009,12.5848209 C12.810279,11.9017844 12.5759038,11.1852657 12.2745641,10.4888363 C11.7656349,9.31026346 11.3035808,8.11160132 10.8013481,6.92633205 L9.42857143,3.7120425 C9.40848927,3.66516744 9.38170353,3.61829239 9.35491778,3.57141733 L8.4977739,3.57141733 L6.62277166,8.4196374 L5.0357162,12.5446423 C4.75446587,13.2678575 4.07142934,13.1339287 3.4419643,13.3281254 L3.42857143,13.8571439 C3.85044693,13.8571439 4.265626,13.8370546 4.6875015,13.7633938 C4.78125161,13.7500009 4.91518034,13.7098223 5.00893046,13.7098223 C5.7857171,13.7098223 6.56920017,13.843751 7.34598681,13.843751 C7.35268325,13.7834831 7.35937969,13.7232151 7.35937969,13.6629472 C7.35937969,13.5290185 7.35937969,13.4017862 7.35268325,13.2745539 C6.97098637,13.2209824 5.98661019,13.2008931 5.98661019,12.6852675 C5.98661019,12.4308029 6.66295028,10.6763365 6.83705763,10.2879432 L9.85045408,10.3013361 C9.95759707,10.57589 10.8214374,12.5647316 10.8214374,12.8058033 C10.8214374,13.0535715 10.4665262,13.1004465 10.2857225,13.1406252 L9.40848927,13.3281254 C9.38839996,13.5022327 9.38170353,13.6763401 9.38170353,13.8504474 C10.2589367,13.8236617 11.1361699,13.7500009 12.0134031,13.7500009 C12.8638505,13.7500009 13.714298,13.8571439 14.5647454,13.8571439 Z M9.13393537,9.49776368 C8.47098815,9.49776368 7.80804094,9.47767437 7.14509372,9.47097794 L8.28348793,6.45758149 C8.75893493,7.42856479 9.16741756,8.46651245 9.51563226,9.48437081 C9.38839996,9.49106725 9.26116767,9.49776368 9.13393537,9.49776368 Z" id="" fill="#d4d4d4" fill-rule="nonzero"></path>
    </g>
</svg>
