<?xml version="1.0" encoding="UTF-8"?>
<svg width="16px" height="16px" viewBox="0 0 16 16" version="1.1" xmlns="http://www.w3.org/2000/svg" xmlns:xlink="http://www.w3.org/1999/xlink">
    <!-- Generator: Sketch 64 (93537) - https://sketch.com -->
    <title>Icons 16 / VS Code /AtlasLight</title>
    <desc>Created with Sketch.</desc>
    <g id="Icons-16-/-VS-Code-/AtlasLight" stroke="none" stroke-width="1" fill="none" fill-rule="evenodd">
        <g id="Atlas/_Icon/Small/Gray" fill="#000000">
            <path d="M15.6162449,9.46901236 L15.880597,9.47263682 C15.2039801,13.0149254 12.2189055,15.761194 8.55721393,16 L8.55721393,16 L8.55721393,14.1691542 C8.99502488,13.1343284 9.79104478,11.7810945 11.3034826,10.7462687 C12.8159204,9.71144279 14.4875622,9.43283582 15.880597,9.47263682 Z M0.119402985,9.47263682 C1.51243781,9.43283582 3.1840796,9.71144279 4.69651741,10.7462687 C6.20895522,11.7810945 7.00497512,13.1741294 7.44278607,14.1691542 L7.44278607,14.1691542 L7.44278607,16 C3.78109453,15.721393 0.7960199,13.0149254 0.119402985,9.47263682 Z M14.8457711,3.82089552 C15.5621891,5.05472637 16,6.48756219 16,8 L16,8 L16,8.35820896 C14.4079602,8.31840796 12.4975124,8.59701493 10.6666667,9.83084577 C9.75124378,10.4278607 9.07462687,11.1840796 8.55721393,11.9004975 L8.55721393,11.9004975 L8.55721393,8.47761194 C8.99502488,7.44278607 9.79104478,6.08955224 11.3034826,5.05472637 C12.4577114,4.25870647 13.7313433,3.94029851 14.8457711,3.82089552 Z M1.15422886,3.82089552 C2.30845771,3.90049751 3.54228856,4.25870647 4.69651741,5.05472637 C6.20895522,6.08955224 7.00497512,7.48258706 7.44278607,8.47761194 L7.44278607,8.47761194 L7.44278607,11.9004975 C6.92537313,11.1840796 6.24875622,10.4676617 5.33333333,9.83084577 C3.54228856,8.59701493 1.5920398,8.27860697 4.4408921e-16,8.35820896 L4.4408921e-16,8.35820896 L4.4408921e-16,8 C4.4408921e-16,6.44776119 0.39800995,5.05472637 1.15422886,3.82089552 Z M7.44278607,-3.90798505e-14 L7.44278607,6.20895522 C6.92537313,5.49253731 6.24875622,4.7761194 5.33333333,4.13930348 C4.21890547,3.38308458 3.02487562,2.98507463 1.95024876,2.78606965 C3.30348259,1.19402985 5.25373134,0.15920398 7.44278607,-3.90798505e-14 L7.44278607,-3.90798505e-14 Z M8.59701493,-3.90798505e-14 C10.7860697,0.15920398 12.7363184,1.19402985 14.0895522,2.78606965 C12.9751244,2.98507463 11.7810945,3.38308458 10.6666667,4.13930348 C9.75124378,4.7761194 9.07462687,5.49253731 8.55721393,6.20895522 L8.597,6.155 Z" id="Logo-Color"></path>
        </g>
    </g>
</svg>
