<?xml version="1.0" encoding="UTF-8"?>
<svg width="16" height="16" viewBox="0 0 16 16" fill="none" xmlns="http://www.w3.org/2000/svg">
    <path d="M12.8679 8.64434L14.6024 9.60691C14.9736 9.77414 14.9736 10.2967 14.6024 10.464L8.31455 13.4742C8.03072 13.5996 7.72507 13.5996 7.44124 13.4742L1.15337 10.464C0.78221 10.2967 0.78221 9.77414 1.15337 9.60691L3.10307 8.53491" stroke="#000000" stroke-width="0.765942" stroke-miterlimit="10"/>
    <path d="M1.15337 8.93204C0.78221 8.76482 0.78221 8.24222 1.15337 8.07496L2.38832 7.44067C2.40682 7.47847 2.4266 7.51567 2.44766 7.55222C2.81544 8.26022 3.57264 8.75367 4.45967 8.75367H11.8586C12.6375 8.75367 13.2865 8.23876 13.5028 7.55222L14.6024 8.07496C14.9736 8.24222 14.9736 8.76482 14.6024 8.93204L8.31455 11.9422C8.03072 12.0677 7.72507 12.0677 7.44124 11.9422L1.15337 8.93204Z" fill="#00684A" stroke="#000000" stroke-width="0.765942" stroke-miterlimit="10"/>
    <path d="M11.2306 5.43726C11.1478 3.62857 9.69187 2.18823 7.90793 2.18823C6.53398 2.18823 5.3397 3.06654 4.8317 4.28654C4.81198 4.33388 4.76296 4.36228 4.71198 4.35663C4.63067 4.3476 4.54807 4.34297 4.46441 4.34297C3.41399 4.2532 2.18848 5.20851 2.18848 6.49771C2.18848 7.78691 3.20744 8.75346 4.46441 8.75346H11.905C12.8236 8.75346 13.5682 8.06828 13.5682 7.12617C13.5682 6.18406 12.8236 5.42034 11.905 5.42034C11.7417 5.42034 11.5509 5.47868 11.3856 5.54046C11.3129 5.56763 11.2341 5.51486 11.2306 5.43726Z" stroke="#000000" stroke-width="0.765942"/>
    <path d="M13.1802 3.84586C13.0996 2.9168 12.3316 2.18823 11.3961 2.18823C10.6704 2.18823 10.0378 2.63892 9.75578 3.2702C9.73492 3.31686 9.68623 3.34488 9.63529 3.341C9.60446 3.33863 9.57332 3.33743 9.54192 3.33743C8.97629 3.28954 8.31641 3.79906 8.31641 4.48663C8.31641 5.1742 8.86509 5.68968 9.54192 5.68968H13.5484C14.043 5.68968 14.4439 5.32426 14.4439 4.8218C14.4439 4.31934 14.043 3.91203 13.5484 3.91203C13.4829 3.91203 13.4093 3.92926 13.3392 3.95166C13.2653 3.97526 13.1869 3.92308 13.1802 3.84586Z" fill="#00684A" stroke="#000000" stroke-width="0.765942"/>
</svg>
