<?xml version="1.0" encoding="UTF-8"?>
<svg viewBox="-2 -1 13.7142857142 16" version="1.1" xmlns="http://www.w3.org/2000/svg" xmlns:xlink="http://www.w3.org/1999/xlink">
  <!-- Generator: Sketch 63.1 (92452) - https://sketch.com -->
  <title>collection</title>
  <g id="collection" stroke="none" stroke-width="1" fill="none" fill-rule="evenodd">
    <path
      d="M7.17170947,0.764052064 C7.19050265,0.841372576 7.2,0.920659814 7.2,1.00023145 L7.2,2.061 L8.36382061,1.77852198 C8.90048094,1.6480837 9.4412712,1.97739174 9.57170947,2.51405206 C9.59050265,2.59137258 9.6,2.67065981 9.6,2.75023145 L9.6,3.811 L10.7638206,3.52852198 C11.3004809,3.3980837 11.8412712,3.72739174 11.9717095,4.26405206 C11.9905027,4.34137258 12,4.42065981 12,4.50023145 L12,11.1920031 C12,11.6533127 11.6844384,12.0547607 11.2361794,12.1637126 L6.03617939,13.4276014 C5.49951906,13.5580397 4.9587288,13.2287317 4.82829053,12.6920714 C4.80949735,12.6147508 4.8,12.5354636 4.8,12.455892 L4.799,11.394 L3.63617939,11.6776014 C3.09951906,11.8080397 2.5587288,11.4787317 2.42829053,10.9420714 C2.40949735,10.8647508 2.4,10.7854636 2.4,10.705892 L2.4,9.644 L1.23617939,9.92760144 C0.699519063,10.0580397 0.158728801,9.72873168 0.0282905281,9.19207136 C0.00949734812,9.11475084 2.84217094e-14,9.03546361 2.84217094e-14,8.95589197 L2.84217094e-14,2.26412034 C2.84217094e-14,1.80281068 0.315561648,1.4013627 0.763820614,1.29241087 L5.96382061,0.0285219774 C6.50048094,-0.101916295 7.0412712,0.227391741 7.17170947,0.764052064 Z M10.9982156,4.25017359 L10.9409552,4.25730408 L9.6,4.583 L8.85,4.765 L5.74095515,5.52119297 C5.65130336,5.54298334 5.58288314,5.61157309 5.55910112,5.69718501 L5.55,5.76412034 L5.549,10.44 L5.55,10.44 L5.55,11.212 L5.549,11.212 L5.55,12.455892 C5.55,12.4757849 5.55237434,12.4956067 5.55707263,12.5149368 C5.58502369,12.6299355 5.68834552,12.706849 5.80178441,12.7059498 L5.85904485,12.6988193 L11.0590448,11.4349304 C11.1486966,11.4131401 11.2171169,11.3445503 11.2408989,11.2589384 L11.25,11.1920031 L11.25,4.50023145 C11.25,4.48033854 11.2476257,4.46051673 11.2429274,4.4411866 C11.2149763,4.32618796 11.1116545,4.24927444 10.9982156,4.25017359 Z M8.59821559,2.50017359 L8.54095515,2.50730408 L7.2,2.833 L6.45,3.015 L3.34095515,3.77119297 C3.25130336,3.79298334 3.18288314,3.86157309 3.15910112,3.94718501 L3.15,4.01412034 L3.15,10.705892 C3.15,10.7257849 3.15237434,10.7456067 3.15707263,10.7649368 C3.18502369,10.8799355 3.28834552,10.956849 3.40178441,10.9559498 L3.45904485,10.9488193 L4.799,10.622 L4.8,5.76412034 C4.8,5.30281068 5.11556165,4.9013627 5.56382061,4.79241087 L8.85,3.993 L8.85,2.75023145 C8.85,2.73033854 8.84762566,2.71051673 8.84292737,2.6911866 C8.81497631,2.57618796 8.71165448,2.49927444 8.59821559,2.50017359 Z M6.19821559,0.750173587 L6.14095515,0.757304081 L0.940955154,2.02119297 C0.85130336,2.04298334 0.782883138,2.11157309 0.759101121,2.19718501 L0.75,2.26412034 L0.75,8.95589197 C0.75,8.97578488 0.752374337,8.99560669 0.757072632,9.01493682 C0.78502369,9.12993546 0.888345522,9.20684898 1.00178441,9.20594983 L1.05904485,9.19881934 L2.4,8.872 L2.4,4.01412034 C2.4,3.55281068 2.71556165,3.1513627 3.16382061,3.04241087 L6.45,2.243 L6.45,1.00023145 C6.45,0.98033854 6.44762566,0.960516731 6.44292737,0.941186603 C6.41497631,0.826187962 6.31165448,0.749274436 6.19821559,0.750173587 Z"
      id="Combined-Shape"
      fill="#d4d4d4"
      fill-rule="nonzero"
    ></path>
  </g>
</svg>
