<?xml version="1.0" encoding="UTF-8"?>
<svg width="18px" height="18px" viewBox="0 0 18 18" version="1.1" xmlns="http://www.w3.org/2000/svg" xmlns:xlink="http://www.w3.org/1999/xlink">
    <!-- Generator: Sketch 63.1 (92452) - https://sketch.com -->
    <title>Inactive Connection</title>
    <g id="Icon-/-Connection-OFF-00" stroke="none" stroke-width="1" fill="none" fill-rule="evenodd">
        <path
            d="M12.082566,7.68050402 C12.1363942,8.07047176 12.1646605,8.46365599 12.1671414,8.85753425 C12.1819246,11.7149902 10.729432,13.5452838 9.84638707,14.3929602 L9.75071785,14.483105 L9.73210189,14.4999087 C9.62225912,14.6021713 9.50815865,14.699705 9.39011315,14.7922537 L9.21012521,14.9273059 L9.18530394,14.9441096 C9.0729307,15.449137 8.98136582,15.9585027 8.91082352,16.4709139 L8.84729666,16.9842922 L8.5271753,16.9842922 C8.44333508,16.0747032 8.32645068,15.2132734 8.31006227,15.092894 L8.30816411,15.0818265 L8.26180674,15.0489498 C8.10078971,14.9317181 7.53651558,14.4992441 6.92198053,13.7791361 L8.49562461,11.9207593 C8.49439341,12.1348397 8.49364711,12.3214058 8.49319475,12.468923 L8.49249853,12.8305023 C8.49249853,13.2593607 8.74728155,14.3987215 9.00023948,14.4290411 C9.00023948,14.4290411 8.96341566,13.0033934 8.91002955,11.4290223 L12.082566,7.68050402 Z M14.8229711,2.11830686 C15.0103518,2.27685977 15.0519448,2.54375197 14.933598,2.7491578 L14.8816931,2.82297112 L3.88169314,15.8229711 C3.70332112,16.0337744 3.38783218,16.0600652 3.17702888,15.8816931 C2.98964817,15.7231402 2.94805515,15.456248 3.06640198,15.2508422 L3.11830686,15.1770289 L14.1183069,2.17702888 C14.2966789,1.96622558 14.6121678,1.93993483 14.8229711,2.11830686 Z M8.51111448,1.03251142 C8.51841485,1.04931507 8.52462017,1.06684932 8.52863538,1.07671233 C8.52863538,1.07671233 8.76480245,1.66118721 8.99914443,1.98995434 C9.14080743,2.29894232 10.0617933,2.9396079 10.9108554,4.41858712 L5.34529119,10.9974693 C5.10699067,10.2512653 4.97136359,9.41003307 5.0156958,8.47981735 C5.21645606,4.26684932 7.68325216,2.19561644 8.16398174,1.81936073 C8.47461261,1.48803653 8.48702325,1.36127854 8.51111448,1.03251142 Z"
            id="Combined-Shape"
            fill="#d4d4d4"
            fill-rule="nonzero"
        ></path>
    </g>
</svg>
