<?xml version="1.0" encoding="UTF-8"?>
<svg width="18px" height="18px" viewBox="0 0 18 18" version="1.1" xmlns="http://www.w3.org/2000/svg" xmlns:xlink="http://www.w3.org/1999/xlink">
    <!-- Generator: Sketch 63.1 (92452) - https://sketch.com -->
    <title>Icon / Documents 00</title>
    <g id="Icon-/-Documents-00" stroke="none" stroke-width="1" fill="none" fill-rule="evenodd">
        <path d="M14.9717095,6.53599035 C14.9905027,6.61331087 15,6.6925981 15,6.77216974 L15,13.4639414 C15,13.925251 14.6844384,14.326699 14.2361794,14.4356508 L9.03617939,15.6995397 C8.49951906,15.829978 7.9587288,15.50067 7.82829053,14.9640096 C7.80949735,14.8866891 7.8,14.8074019 7.8,14.7278303 L7.8,8.03605863 C7.8,7.57474897 8.11556165,7.17330099 8.56382061,7.06434916 L13.7638206,5.80046027 C14.3004809,5.67002199 14.8412712,5.99933003 14.9717095,6.53599035 Z M12.5717095,4.78599035 C12.5905027,4.86331087 12.6,4.9425981 12.6,5.02216974 L12.6,5.31093829 L8.38668608,6.33556705 C7.60223288,6.52623276 7.05,7.22876672 7.05,8.03605863 L7.049,13.8489383 L6.63617939,13.9495397 C6.09951906,14.079978 5.5587288,13.75067 5.42829053,13.2140096 C5.40949735,13.1366891 5.4,13.0574019 5.4,12.9778303 L5.4,6.28605863 C5.4,5.82474897 5.71556165,5.42330099 6.16382061,5.31434916 L11.3638206,4.05046027 C11.9004809,3.92002199 12.4412712,4.24933003 12.5717095,4.78599035 Z M10.1717095,3.03599035 C10.1905027,3.11331087 10.2,3.1925981 10.2,3.27216974 L10.2,3.56093829 L5.98668608,4.58556705 C5.20223288,4.77623276 4.65,5.47876672 4.65,6.28605863 L4.65,12.0979383 L4.23617939,12.1995397 C3.69951906,12.329978 3.1587288,12.00067 3.02829053,11.4640096 C3.00949735,11.3866891 3,11.3074019 3,11.2278303 L3,4.53605863 C3,4.07474897 3.31556165,3.67330099 3.76382061,3.56434916 L8.96382061,2.30046027 C9.50048094,2.17002199 10.0412712,2.49933003 10.1717095,3.03599035 Z" id="Combined-Shape" fill="#d4d4d4" fill-rule="nonzero"></path>
    </g>
</svg>
