<?xml version="1.0" encoding="UTF-8"?>
<svg width="16px" height="16px" viewBox="0 0 16 16" version="1.1" xmlns="http://www.w3.org/2000/svg" xmlns:xlink="http://www.w3.org/1999/xlink">
    <!-- Generator: Sketch 64 (93537) - https://sketch.com -->
    <title>Icons 24 / VS Code / Object 00 Copy 6</title>
    <desc>Created with Sketch.</desc>
    <g id="Icons-24-/-VS-Code-/-Object-00-Copy-6" stroke="none" stroke-width="1" fill="none" fill-rule="evenodd">
        <g id="VS-Code-Object-00">
            <rect id="Rectangle" x="0" y="0" width="16" height="16"></rect>
        </g>
        <g id="Group-6" transform="translate(12.000000, 8.165573) rotate(-180.000000) translate(-12.000000, -8.165573) translate(10.000000, 2.665573)" fill-rule="nonzero" stroke="#D4D4D4" stroke-width="1.3">
            <path d="M2.84615384,0.00109325922 L1.15384616,0.00109325922 C1.08352685,0.00109325922 1.09113213,-0.00702046865 0.947828241,0.0209598935 C0.804524348,0.0489402556 0.670417435,0.10558731 0.550747978,0.185223871 C0.220346811,0.405096288 0,0.800213914 0,1.25109326 C0,6.23529464 0,8.95751686 0,9.41775993 C0,10.1081245 0.516586546,10.6677599 1.15384616,10.6677599 L2.84615384,10.6677599 C3.48341347,10.6677599 4,10.1081245 4,9.41775993 L4,7.33442659" id="Combined-Shape"></path>
            <path d="M2.84615384,0.00109325922 L1.15384616,0.00109325922 C1.08352685,0.00109325922 1.09113213,-0.00702046865 0.947828241,0.0209598935 C0.804524348,0.0489402556 0.670417435,0.10558731 0.550747978,0.185223871 C0.220346811,0.405096288 0,0.800213914 0,1.25109326 C0,6.23529464 0,8.95751686 0,9.41775993 C0,10.1081245 0.516586546,10.6677599 1.15384616,10.6677599 L2.84615384,10.6677599 C3.48341347,10.6677599 4,10.1081245 4,9.41775993 L4,7.33442659" id="Combined-Shape" transform="translate(2.000000, 5.333880) scale(1, -1) translate(-2.000000, -5.333880) "></path>
        </g>
        <rect id="Rectangle" x="0" y="0" width="16" height="16"></rect>
        <path d="M4.84615384,3 L3.15384616,3 C2.51658655,3 2,3.55963542 2,4.25 L2,12.4166667 C2,13.1070313 2.51658655,13.6666667 3.15384616,13.6666667 L4.84615384,13.6666667 C5.48341347,13.6666667 6,13.1070313 6,12.4166667 L6,4.25 C6,3.55963541 5.48341347,3 4.84615384,3 Z M2,6.33333333 L6,6.33333333 M2,10.3333333 L6,10.3333333" id="Combined-Shape" stroke="#D4D4D4" stroke-width="1.3" fill-rule="nonzero"></path>
        <path d="M10.9821727,6.3348981 L11.2423,6.08071903 C11.3524439,5.97309366 11.530549,5.97309366 11.6395213,6.08071903 L13.917392,8.30535837 C14.027536,8.41298374 14.027536,8.58701626 13.917392,8.69349668 L11.6395213,10.919281 C11.5293773,11.0269063 11.3512722,11.0269063 11.2423,10.919281 L10.9821727,10.6651019 C10.870857,10.5563316 10.8732005,10.3788642 10.9868597,10.2723838 L12.3988115,8.95798031 L7.28121861,8.95798031 C7.12537663,8.95798031 7,8.83547058 7,8.68319212 L7,8.31680788 C7,8.16452942 7.12537663,8.04201969 7.28121861,8.04201969 L12.3988115,8.04201969 L10.9868597,6.72761621 C10.8720288,6.62113579 10.8696853,6.44366842 10.9821727,6.3348981 Z" id="Path" fill="#D4D4D4" transform="translate(10.500000, 8.500000) scale(-1, 1) rotate(-180.000000) translate(-10.500000, -8.500000) "></path>
    </g>
</svg>