<?xml version="1.0" encoding="UTF-8"?>
<svg width="18px" height="18px" viewBox="0 0 18 18" version="1.1" xmlns="http://www.w3.org/2000/svg" xmlns:xlink="http://www.w3.org/1999/xlink">
    <!-- Generator: Sketch 63.1 (92452) - https://sketch.com -->
    <title>Icon / Schema 00</title>
    <g id="Icon-/-Schema-00" stroke="none" stroke-width="1" fill="none" fill-rule="evenodd">
        <path d="M14.3928571,4 L4.17857143,4 C3.52765625,4 3,4.52765625 3,5.17857143 L3,13.8214286 C3,14.4723438 3.52765625,15 4.17857143,15 L14.3928571,15 C15.0437723,15 15.5714286,14.4723438 15.5714286,13.8214286 L15.5714286,5.17857143 C15.5714286,4.52765625 15.0437723,4 14.3928571,4 Z M8.5,13.4285714 L4.57142857,13.4285714 L4.57142857,11.0714286 L8.5,11.0714286 L8.5,13.4285714 Z M8.5,9.5 L4.57142857,9.5 L4.57142857,7.14285714 L8.5,7.14285714 L8.5,9.5 Z M14,13.4285714 L10.0714286,13.4285714 L10.0714286,11.0714286 L14,11.0714286 L14,13.4285714 Z M14,9.5 L10.0714286,9.5 L10.0714286,7.14285714 L14,7.14285714 L14,9.5 Z" id="Shape" fill="#d4d4d4" fill-rule="nonzero"></path>
    </g>
</svg>
