<?xml version="1.0" encoding="UTF-8"?>
<svg width="18px" height="18px" viewBox="0 0 18 18" version="1.1" xmlns="http://www.w3.org/2000/svg" xmlns:xlink="http://www.w3.org/1999/xlink">
  <!-- Generator: Sketch 63.1 (92452) - https://sketch.com -->
  <title>View</title>
  <g id="Icon-/-View-01" stroke="none" stroke-width="1" fill="none" fill-rule="evenodd">
    <g
      id="eye-solid"
      transform="translate(2.000000, 4.000000)"
      fill="#d4d4d4"
      fill-rule="nonzero"
    >
      <path
        d="M13.9154167,4.31180556 C12.5973264,1.74003472 9.98788194,0 7,0 C4.01211806,0 1.40194444,1.74125 0.0845833333,4.31204861 C-0.0281767227,4.53510065 -0.0281767227,4.79847574 0.0845833333,5.02152778 C1.40267361,7.59329861 4.01211806,9.33333333 7,9.33333333 C9.98788194,9.33333333 12.5980556,7.59208333 13.9154167,5.02128472 C14.0281767,4.79823269 14.0281767,4.53485759 13.9154167,4.31180556 Z M7,8.16666667 C5.06700338,8.16666667 3.5,6.59966329 3.5,4.66666667 C3.5,2.73367004 5.06700338,1.16666667 7,1.16666667 C8.93299662,1.16666667 10.5,2.73367004 10.5,4.66666667 C10.5004516,5.59506276 10.1318477,6.48556389 9.47537247,7.14203914 C8.81889722,7.79851439 7.92839609,8.1671183 7,8.16666667 L7,8.16666667 Z M7,2.33332683 C6.79173334,2.33624394 6.58481052,2.36722923 6.38482639,2.42545139 C6.72547503,2.88837981 6.67688236,3.53072159 6.27046864,3.93713531 C5.86405492,4.34354903 5.22171314,4.3921417 4.75878472,4.05149306 C4.49721944,5.01515038 4.87933291,6.03829171 5.70855106,6.59457321 C6.5377692,7.1508547 7.62939171,7.11637005 8.42184534,6.5088595 C9.21429898,5.90134895 9.53107238,4.8561296 9.20920494,3.91090307 C8.88733749,2.96567655 7.99852206,2.33098291 7,2.33332683 L7,2.33332683 Z"
        id="Shape"
      ></path>
    </g>
  </g>
</svg>
